<svg xmlns="http://www.w3.org/2000/svg" viewBox="0 0 100 100" fill="none">
  <!-- Open book pages left -->
  <path d="M50 62 C40 58 20 56 8 58 L10 72 C22 70 40 72 50 76 Z" fill="#3d2f1e"/>
  <!-- Open book pages right -->
  <path d="M50 62 C60 58 80 56 92 58 L90 72 C78 70 60 72 50 76 Z" fill="#3d2f1e"/>
  <!-- Book spine lines left -->
  <path d="M14 60 L12 73" stroke="#3d2f1e" stroke-width="0.8" opacity="0.6"/>
  <path d="M22 58 L20 72" stroke="#3d2f1e" stroke-width="0.8" opacity="0.6"/>
  <path d="M34 57 L32 71" stroke="#3d2f1e" stroke-width="0.8" opacity="0.6"/>
  <!-- Book spine lines right -->
  <path d="M86 60 L88 73" stroke="#3d2f1e" stroke-width="0.8" opacity="0.6"/>
  <path d="M78 58 L80 72" stroke="#3d2f1e" stroke-width="0.8" opacity="0.6"/>
  <path d="M66 57 L68 71" stroke="#3d2f1e" stroke-width="0.8" opacity="0.6"/>
  <!-- Center leaf (tallest) -->
  <path d="M50 22 C47 30 44 42 50 62 C56 42 53 30 50 22 Z" fill="#3d2f1e"/>
  <!-- Left leaf -->
  <path d="M50 52 C44 44 36 38 30 38 C34 46 42 52 50 52 Z" fill="#3d2f1e"/>
  <!-- Right leaf -->
  <path d="M50 52 C56 44 64 38 70 38 C66 46 58 52 50 52 Z" fill="#3d2f1e"/>
</svg>
